<svg xmlns="http://www.w3.org/2000/svg" width="218.508" height="218.458" viewBox="0 0 218.508 218.458"><defs><style>.a{fill:#2f358b;}.b{fill:#0871b8;}.c{fill:#2babe2;}</style></defs><g transform="translate(0 2.028)"><path class="a" d="M224.5,24.608c-20.5-1.125-61.239-1.424-122.29,21.245.586,15.182-1.789,37.941,17.355,89.62-3.325,8.475,2.817,19.392,12.074,20.722,18.658,3.682,25.846-23.988,8.665-30.259A233.329,233.329,0,0,1,125.06,61.463c59.426-17.2,76.2-14.779,97.011-14.538A22.5,22.5,0,0,1,224.5,24.608ZM135.286,132.044c11.146-.163,11.146,17.346,0,17.182C124.139,149.387,124.139,131.878,135.286,132.044Z" transform="translate(-102.214 -24.208)"/></g><g transform="translate(31.349 130.723)"><path class="b" d="M295.114,368.874a173.168,173.168,0,0,1-37.722,33.066c-26.59-17.207-44.956-39.275-57.685-61.513a22.35,22.35,0,0,1-20.464,10.054c15.581,28.276,42.478,58,78.15,77.681,21.6-12.122,41.1-28.2,55.07-44.742,8.7-.875,14.218-7,14.218-15.732C326.43,345.951,294.942,348.131,295.114,368.874Zm15.752,7.4c-11.146.163-11.146-17.346,0-17.182,11.146-.162,11.147,17.347,0,17.182Z" transform="translate(-179.243 -340.427)"/></g><g transform="translate(125.522)"><path class="c" d="M503.578,42.907a325.184,325.184,0,0,0-64.535-17.6c-7.795-11.118-27.145-6.066-28.249,7.736-1.959,13.646,14.709,22.813,25.161,14.514A299.412,299.412,0,0,1,480.728,58.5c-2.608,31.074-15.934,68.877-31.339,95.4a22.357,22.357,0,0,1,18.882,12.68C490.789,130.838,504.49,85.323,503.578,42.907Zm-77.341.577c-11.143.166-11.143-17.344,0-17.176C437.379,26.142,437.379,43.652,426.236,43.484Z" transform="translate(-410.635 -19.226)"/></g></svg>